<?xml version="1.0" encoding="UTF-8"?>
<svg id="Capa_1" xmlns="http://www.w3.org/2000/svg" viewBox="0 0 211.2 73.44">
  <defs>
    <style>
      .cls-1 {
        fill: #020202;
      }

      .cls-2 {
        fill: #131313;
      }

      .cls-3 {
        fill: #050505;
      }

      .cls-4 {
        fill: #060606;
      }

      .cls-5 {
        fill: #fbfbfb;
      }

      .cls-6 {
        fill: #f9f9f9;
      }

      .cls-7 {
        fill: #e37f7f;
      }

      .cls-8 {
        fill: #000e92;
      }

      .cls-9 {
        fill: #c80101;
      }

      .cls-10 {
        fill: #030303;
      }

      .cls-11 {
        fill: #0b0b0b;
      }

      .cls-12 {
        fill: #fefefe;
      }

      .cls-13 {
        fill: #040404;
      }

      .cls-14 {
        fill: #070707;
      }

      .cls-15 {
        fill: #f7f7f7;
      }

      .cls-16 {
        fill: #fdfdfd;
      }
    </style>
  </defs>
  <path class="cls-12" d="M.02,69.32C.02,46.55.02,23.78,0,1,0,.24.09,0,.95,0,70.69.03,140.43.03,210.16,0c.87,0,.95.24.95,1.01-.02,23.81-.02,47.61-.04,71.42,0,.3.49,1.03-.45.96-.1-.12-.19-.26-.25-.41-.22-.7-.13-1.42-.14-2.14-.02-.73-.32-1.11-1.08-1.11-.6,0-1.2-.01-1.8-.01-68.26,0-136.52,0-204.78,0-.86,0-1.77.22-2.55-.38Z"/>
  <path class="cls-9" d="M.02,69.32c.44-.01.88-.04,1.31-.04,69.26,0,138.52,0,207.78,0,1.55,0,1.55,0,1.54,1.59,0,.76-.03,1.51-.05,2.26-.41.23-.86.12-1.29.12-69.33,0-138.67,0-208,0-.43,0-.88.11-1.3-.11,0-1.27,0-2.55,0-3.82Z"/>
  <path class="cls-7" d="M.02,73.14c69.84,0,139.67,0,209.51,0,.36,0,.72,0,1.08,0,0,.08,0,.16,0,.25-69.84,0-139.68,0-209.52-.01-.35,0-.81.28-1.08-.22Z"/>
  <path class="cls-8" d="M83.4,31.85c2.97,5.21,4.27,10.95,5.94,16.57.15.51.03.73-.54.72-1.6-.02-3.19-.03-4.79,0-.65.01-.76-.34-.88-.86-.89-3.75-1.95-7.45-3.1-11.12-.32-1.03-.77-2-1.27-2.95-.68-1.29-1.74-1.89-3.19-1.93-2.83-.08-2.81-.09-3.19,2.69-.61,4.41-1.28,8.81-1.86,13.22-.1.79-.38.99-1.11.96-1.28-.05-2.56-.05-3.83,0-.75.03-.98-.17-.86-.94.77-5.19,1.51-10.38,2.25-15.57,1.08-7.59,2.19-15.18,3.22-22.78.16-1.15.45-1.58,1.71-1.55,3.55.1,7.1.04,10.65.04,5.59,0,7.86,1.8,8.87,7.25.62,3.37.42,6.73-.82,9.97-1.2,3.14-3.35,5.25-6.68,6.06-.19.05-.36.14-.52.21Z"/>
  <path class="cls-8" d="M185.54,22.4c-1.24,8.7-2.47,17.28-3.67,25.86-.09.63-.27.91-.95.89-1.24-.05-2.47-.04-3.71,0-.65.02-.79-.16-.69-.82.79-5.39,1.52-10.78,2.29-16.17,1.09-7.63,2.2-15.26,3.26-22.89.1-.71.28-.96,1.01-.92,1.15.06,2.32.1,3.47-.01.93-.09,1.12.37,1.31,1.09,1.58,5.82,3.19,11.64,4.79,17.45.75,2.71,1.5,5.42,2.42,8.14.39-2.7.79-5.4,1.17-8.1.83-5.86,1.67-11.72,2.47-17.59.11-.8.42-1.04,1.22-.99,1.15.08,2.32.06,3.47,0,.66-.03.82.2.72.82-.68,4.6-1.33,9.2-1.99,13.81-1.17,8.18-2.34,16.36-3.5,24.54-.23,1.63-.2,1.63-1.83,1.63-.44,0-.88,0-1.32,0-2.43,0-2.42,0-3.07-2.38-2.14-7.81-4.28-15.62-6.42-23.43-.08-.3-.08-.63-.45-.92Z"/>
  <path class="cls-8" d="M56.18,27.26c1.8,0,3.59.03,5.39-.02.67-.02.8.2.71.81-.79,5.35-1.55,10.7-2.32,16.05-.06.4-.08.78-.43,1.07-4.14,3.42-8.74,5.4-14.23,4.37-4.28-.8-6.37-3.93-7.69-7.7-1.4-4.02-1.5-8.2-1.17-12.38.41-5.2,1.62-10.2,4.29-14.74,1.95-3.32,4.53-5.95,8.48-6.84,5.15-1.16,9.56.89,12.01,5.56,1.03,1.96,1.57,4.07,1.99,6.21.11.58.01.86-.66.94-1.22.14-2.45.36-3.65.63-.72.16-1.02-.04-1.14-.74-.16-.94-.51-1.84-.95-2.69-1.73-3.39-5.18-4.38-8.47-2.43-1.73,1.03-3.01,2.49-3.84,4.3-2.58,5.63-3.27,11.55-2.18,17.59.86,4.78,3.96,6.46,8.63,5.06.11-.03.23-.07.35-.09,3.15-.7,4.37-2.73,4.49-5.87.09-2.21.31-2.2-1.88-2.2-1.44,0-2.87,0-4.31,0-.45,0-.77-.01-.67-.63.29-1.84.57-3.69.8-5.54.08-.64.38-.74.93-.73,1.84.03,3.67.01,5.51.01Z"/>
  <path class="cls-8" d="M147.95,32.33c.29-6.06,1.29-12.35,4.71-17.99,1.87-3.08,4.37-5.5,7.99-6.41,5.34-1.34,9.9,1.1,12.36,6.48,1.86,4.07,2.14,8.37,1.89,12.73-.31,5.42-1.59,10.61-4.34,15.34-1.89,3.26-4.43,5.87-8.18,6.93-5.41,1.53-10.26-1.01-12.59-6.54-1.37-3.24-1.82-6.65-1.85-10.54Z"/>
  <path class="cls-8" d="M103.38,49.13c-3.23,0-6.47-.02-9.7.01-.83,0-1.16-.05-1.01-1.08,1.56-10.58,3.04-21.16,4.55-31.74.34-2.4.7-4.8.99-7.2.07-.61.28-.79.88-.79,6.35.02,12.69.01,19.04,0,.46,0,.74.02.64.64-.29,1.76-.57,3.53-.75,5.31-.08.8-.45.92-1.15.92-4.23-.03-8.46.01-12.69-.03-.84,0-1.17.19-1.27,1.07-.28,2.37-.64,4.73-1.05,7.07-.17.94.12,1.11,1.01,1.09,4.03-.05,8.06.02,12.09-.05,1.01-.02,1.08.31.94,1.15-.27,1.52-.49,3.06-.64,4.6-.08.86-.32,1.21-1.29,1.2-4.07-.06-8.14,0-12.21-.04-.78,0-1.08.16-1.18,1-.38,2.99-.85,5.98-1.33,8.96-.14.85.1,1.07.96,1.07,4.63-.04,9.26,0,13.89-.04.9,0,1.06.27.92,1.08-.27,1.61-.52,3.22-.68,4.84-.08.78-.37.98-1.12.97-3.27-.04-6.55-.02-9.82-.02Z"/>
  <path class="cls-8" d="M28.33,49.13c-2.72,0-2.71,0-2.94-2.71-.15-1.78-.38-3.56-.51-5.34-.06-.76-.35-.98-1.11-.97-2.99.04-5.99.04-8.98,0-.66,0-.98.18-1.2.82-.87,2.47-1.84,4.9-2.72,7.37-.22.63-.51.87-1.19.84-1.23-.06-2.47-.02-3.71-.02-1.37,0-1.37,0-.91-1.23,2.65-6.94,5.3-13.87,7.95-20.8,2.21-5.78,4.46-11.56,6.62-17.36.39-1.04.82-1.53,2-1.42,1.39.12,2.79.07,4.19.01.73-.03.94.23,1.01.93.69,6.64,1.43,13.28,2.14,19.92.68,6.29,1.31,12.58,2.04,18.85.11.98-.12,1.19-1,1.1-.55-.06-1.12-.01-1.68-.01Z"/>
  <path class="cls-8" d="M120.32,32.3c.13-5.94.92-11.54,3.59-16.71,1.92-3.73,4.59-6.7,8.89-7.73,4.05-.97,7.76.53,10.06,4.04,1.65,2.52,2.37,5.34,2.66,8.31.06.58-.19.7-.62.76-1.34.19-2.68.36-4.02.57-.58.09-.89-.02-.94-.69-.08-.99-.38-1.95-.75-2.87-1.15-2.87-3.89-3.88-6.66-2.47-1.47.75-2.61,1.88-3.32,3.33-3.01,6.12-3.98,12.52-2.44,19.21.17.72.52,1.42.89,2.07,1.88,3.24,5.16,3.59,7.7.82,1.44-1.57,2.24-3.46,2.69-5.51.19-.86.48-1.06,1.35-.8,1.33.4,2.71.67,4.07.93.53.1.65.31.52.8-1.06,3.83-2.46,7.49-5.38,10.34-2.83,2.77-6.22,3.79-10.09,2.78-3.2-.83-5.06-3.17-6.32-6.05-1.58-3.61-1.79-7.46-1.9-11.12Z"/>
  <path class="cls-13" d="M140.62,63.09c0-1.89,0-3.67,0-5.45,0-.41-.15-.91.59-.88.64.03.53.46.53.84,0,2.07.02,4.14-.01,6.21,0,.34.27.86-.33.99-.53.11-.96,0-1.31-.54-1.27-1.88-2.6-3.72-3.9-5.57-.06-.08-.13-.15-.31-.37,0,1.95.02,3.72-.02,5.49,0,.37.36,1-.52,1.02-.84.02-.61-.55-.61-.98-.01-1.99-.02-3.98,0-5.97,0-.37-.31-.95.36-1.09.58-.13,1.04.03,1.42.58,1.31,1.89,2.69,3.74,4.12,5.71Z"/>
  <path class="cls-4" d="M27.26,61.02c1.48.89,1.3,2.45,1.86,3.67-.88.36-1.32.04-1.51-.78-.11-.46-.22-.93-.39-1.37-.37-.96-1.65-1.48-2.59-1.14-.39.14-.28.43-.29.68-.02.67-.02,1.35,0,2.02.01.46-.06.75-.64.73-.5-.01-.59-.24-.58-.66.01-2.22.01-4.45,0-6.67,0-.44.12-.63.59-.68.91-.09,1.82-.19,2.73-.05,1.06.17,2.06.4,2.36,1.64.31,1.27-.39,2.02-1.55,2.61Z"/>
  <path class="cls-4" d="M102.54,61.05c1.44.85,1.25,2.42,1.81,3.64-.87.36-1.32.05-1.51-.78-.1-.46-.22-.93-.39-1.37-.37-.96-1.64-1.48-2.59-1.14-.39.14-.28.42-.29.67-.02.67-.02,1.35,0,2.02.01.46-.06.75-.64.73-.5-.01-.59-.24-.59-.66.01-2.22.02-4.45,0-6.67,0-.55.25-.65.71-.69.87-.09,1.74-.17,2.61-.04,1.06.17,2.05.4,2.36,1.63.27,1.07-.06,1.69-1.5,2.64Z"/>
  <path class="cls-10" d="M54.92,60.82c0-.64,0-1.27,0-1.91,0-2.12,0-2.14,2.15-2.21.71-.02,1.43.07,2.14.17,2.1.32,3.26,1.5,3.37,3.38.14,2.24-.87,3.71-2.93,4.3-1.36.39-2.75.33-4.15.27-.62-.03-.59-.37-.58-.79,0-1.07,0-2.15,0-3.22Z"/>
  <path class="cls-1" d="M124.6,60.83c.02-2.48,1.83-4.2,4.39-4.17,2.46.03,4.16,1.73,4.12,4.14-.03,2.51-1.84,4.23-4.38,4.19-2.46-.04-4.15-1.74-4.13-4.15Z"/>
  <path class="cls-1" d="M72.18,60.71c0,2.54-1.7,4.25-4.27,4.27-2.46.02-4.18-1.65-4.2-4.06-.02-2.52,1.72-4.25,4.28-4.26,2.48-.01,4.18,1.63,4.18,4.05Z"/>
  <path class="cls-1" d="M172.48,60.91c-.01-2.52,1.72-4.24,4.29-4.25,2.48-.01,4.17,1.63,4.18,4.06,0,2.54-1.71,4.25-4.28,4.27-2.46.02-4.18-1.65-4.19-4.07Z"/>
  <path class="cls-1" d="M156.05,61.04c1.48.86,1.26,2.45,1.86,3.65-1.43.55-1.43-.55-1.66-1.34-.49-1.69-.84-1.96-2.34-1.97-.58,0-.88.1-.81.77.06.67,0,1.35.02,2.03.01.4-.03.66-.56.66-.54,0-.66-.18-.66-.69.02-2.23.02-4.45,0-6.68,0-.46.15-.61.6-.65.87-.07,1.73-.18,2.62-.06,1.11.16,2.17.4,2.48,1.66.32,1.27-.47,2-1.55,2.61Z"/>
  <path class="cls-1" d="M44.58,62.7c0,1.94,0,1.92-1.97,2.12-.96.1-1.91.07-2.84-.2-1.67-.48-2.7-1.65-2.84-3.3-.14-1.7.52-3.05,2.03-3.89,1.5-.83,3.11-.9,4.76-.54.28.06.54.11.45.52-.09.43-.31.48-.68.37-.98-.27-1.97-.29-2.95,0-1.51.44-2.38,1.56-2.38,3.04,0,1.55.89,2.67,2.47,3.08.31.08.63.13.94.15,1.76.09,2.32-.64,1.8-2.29-.2-.62-.74-.21-1.1-.33-.29-.09-.81.24-.8-.39.01-.61.52-.29.82-.37.07-.02.16,0,.24,0q2.05-.01,2.05,2.02Z"/>
  <path class="cls-1" d="M21.3,62.55c0,2.07,0,2.06-2.09,2.27-.96.1-1.9.04-2.83-.23-1.64-.47-2.54-1.58-2.72-3.24-.19-1.75.5-3.12,2.06-3.96,1.46-.78,3.03-.87,4.64-.51.36.08.61.16.49.61-.13.46-.43.36-.75.27-.9-.24-1.81-.26-2.71-.03-1.65.42-2.54,1.55-2.51,3.16.02,1.6.95,2.7,2.63,3.06.35.08.71.09,1.07.09,1.4,0,2.09-1.03,1.52-2.33-.24-.55-.77-.19-1.15-.29-.27-.07-.7.19-.73-.33-.04-.62.46-.37.77-.42.16-.02.32,0,.48,0q1.86,0,1.86,1.88Z"/>
  <path class="cls-10" d="M45.79,64.7c.97-2.47,1.94-4.93,2.89-7.4.18-.46.48-.56.92-.55.46.01.81.03,1.01.58.85,2.26,1.76,4.5,2.64,6.75.09.22.43.53.01.68-.3.11-.72.18-1.01-.11-.13-.13-.17-.35-.26-.53-.3-.59-.27-1.57-.86-1.74-.88-.26-1.9-.21-2.84-.08-.83.11-.73,1.05-.95,1.63-.29.8-.7,1.08-1.56.76Z"/>
  <path class="cls-10" d="M96.86,64.69c-1.06.44-1.41-.13-1.67-.94-.17-.51-.18-1.31-.74-1.4-.97-.16-2.01-.17-2.96.03-.57.12-.57.98-.76,1.53-.26.76-.62,1.17-1.57.81.97-2.49,1.95-4.97,2.91-7.47.16-.42.45-.5.85-.47.39.03.8-.08,1,.42.97,2.5,1.96,5,2.94,7.5Z"/>
  <path class="cls-10" d="M105.26,64.7c.98-2.5,1.93-4.93,2.88-7.36.17-.44.43-.63.9-.57.37.05.77-.11.98.43.96,2.5,1.97,4.99,2.95,7.48-1.1.45-1.4-.15-1.68-.95-.18-.49-.15-1.3-.75-1.38-.97-.14-2.01-.17-2.96.03-.54.11-.57.97-.74,1.52-.24.78-.65,1.15-1.57.8Z"/>
  <path class="cls-10" d="M194.63,64.7c.96-2.46,1.94-4.92,2.89-7.39.18-.46.47-.56.92-.55.45.02.8.01,1.01.57.85,2.26,1.77,4.49,2.65,6.74.09.22.39.57,0,.69-.32.1-.79.26-1.07-.19-.08-.13-.12-.29-.19-.44-.3-.59-.26-1.57-.86-1.74-.88-.26-1.9-.21-2.84-.08-.81.11-.74,1.03-.94,1.62-.28.81-.7,1.09-1.57.76Z"/>
  <path class="cls-10" d="M12.89,64.69c-.9.35-1.37.06-1.63-.8-.17-.55-.21-1.4-.76-1.51-.95-.19-1.98-.08-2.97-.06-.36,0-.35.4-.45.63-.23.51-.39,1.04-.6,1.55-.21.52-.71.36-1.03.28-.42-.1-.12-.46-.04-.68.88-2.25,1.79-4.49,2.64-6.75.2-.54.53-.59,1-.59.43,0,.74.06.92.53.96,2.47,1.94,4.94,2.92,7.4Z"/>
  <path class="cls-4" d="M159.38,60.75s0-.08,0-.12c.09-1.25-.56-3.04.25-3.63,1.03-.75,2.76-.17,4.19-.23.37-.01.62.07.6.52-.02.44-.34.36-.6.37-.76,0-1.52.06-2.27-.01-.83-.08-.99.27-.97,1.02.04,1.58,0,1.58,1.57,1.58.52,0,1.04,0,1.56,0,.27,0,.58-.05.57.39-.02.37-.23.46-.55.45-.76,0-1.52.04-2.27-.01-.7-.05-.86.23-.87.89-.01,1.97-.04,1.97,1.92,1.97.56,0,1.12,0,1.68,0,.35,0,.5.16.49.51,0,.33-.2.38-.47.38-1.44,0-2.87-.01-4.31,0-.57,0-.5-.38-.5-.73,0-1.11,0-2.23,0-3.34Z"/>
  <path class="cls-3" d="M30.64,60.78c0-1.11.02-2.23,0-3.34-.01-.51.16-.7.68-.69,1.23.03,2.47,0,3.7.01.32,0,.66-.03.66.46,0,.52-.38.42-.67.42-.76.01-1.52.04-2.27,0-.63-.04-.91.09-.91.82,0,1.77-.05,1.77,1.72,1.77.4,0,.8-.02,1.19,0,.3.02.78-.2.74.43-.03.51-.4.39-.7.4-.72.01-1.44.04-2.15,0-.63-.05-.79.18-.8.8-.04,2.07-.07,2.07,2.03,2.07.52,0,1.04,0,1.55,0,.33,0,.51.13.51.49,0,.34-.22.38-.47.38-1.43,0-2.87-.01-4.3.01-.57,0-.51-.35-.51-.71,0-1.11,0-2.22,0-3.34Z"/>
  <path class="cls-10" d="M83.59,60.84c0-1.03.06-2.07-.02-3.09-.06-.76.26-.93.92-.99,1.04-.09,2.07-.09,3.08.16,1.04.26,1.68.93,1.74,2,.07,1.08-.37,1.92-1.44,2.36-.75.3-1.53.47-2.33.38-.68-.08-.82.21-.76.79.03.35.07.73-.01,1.07-.12.47.49,1.32-.62,1.3-1.03-.02-.5-.81-.54-1.23-.08-.91-.02-1.82-.02-2.74Z"/>
  <path class="cls-13" d="M148.33,64.06c.44.02.95-.02,1.45-.2.27-.1.43,0,.53.29.1.29.01.43-.23.56-1.18.64-4.15.22-5.36-.76-1.21-.99-1.67-2.71-1.18-4.33.71-2.3,4.53-3.88,6.57-2.73.3.17.25.32.19.56-.07.28-.19.37-.5.31-.5-.1-1.02-.17-1.53-.18-2.32-.02-3.65,1.2-3.65,3.29,0,1.99,1.37,3.19,3.71,3.19Z"/>
  <path class="cls-13" d="M188.5,56.63c.37.07.84.17,1.31.25.33.06.52.2.36.57-.12.29-.28.41-.64.27-.52-.19-1.08-.26-1.64-.19-.67.09-1.3.27-1.44,1.02-.15.78.42,1.14,1.03,1.41.62.27,1.26.48,1.88.76.87.4,1.4,1.09,1.32,2.07-.08,1.02-.74,1.64-1.7,1.94-1.14.36-2.28.27-3.41-.06-.32-.09-.54-.21-.38-.66.15-.42.34-.31.63-.21.68.25,1.39.34,2.12.27.74-.07,1.36-.37,1.52-1.12.17-.79-.37-1.25-1.04-1.53-.47-.2-.98-.34-1.44-.55-.98-.45-1.89-1-1.72-2.28.17-1.23,1.14-1.63,2.2-1.87.31-.07.63-.06,1.06-.09Z"/>
  <path class="cls-13" d="M76.74,56.63c.29.05.7.07,1.07.19.27.09.82-.07.66.57-.14.56-.46.34-.81.26-.54-.11-1.08-.21-1.65-.1-.63.12-1.16.34-1.26,1.06-.09.67.33,1.03.87,1.27.65.29,1.33.53,1.98.82.88.39,1.4,1.06,1.35,2.05-.06,1.04-.7,1.65-1.65,1.96-1.14.38-2.28.29-3.41-.04-.27-.08-.64-.11-.44-.62.17-.42.36-.39.7-.25.67.28,1.39.34,2.11.26.73-.08,1.33-.38,1.47-1.16.13-.75-.34-1.19-.97-1.46-.47-.2-.98-.33-1.44-.55-.96-.45-1.88-.95-1.76-2.25.09-1,.9-1.7,2.26-1.94.27-.05.56-.05.94-.07Z"/>
  <path class="cls-10" d="M121.8,56.6c.47.07.95.11,1.4.23.25.06.73-.05.62.49-.09.45-.33.47-.77.38-.65-.13-1.35-.14-2.01-.09-1.83.15-2.93,1.39-2.93,3.25,0,1.77,1.08,3,2.88,3.18.71.07,1.43.12,2.13-.14.38-.14.61-.02.71.36.11.41-.22.45-.48.51-1.26.28-2.53.33-3.77-.08-1.57-.53-2.52-1.6-2.7-3.28-.17-1.69.4-3.05,1.85-3.96.93-.59,1.97-.82,3.08-.83Z"/>
  <path class="cls-14" d="M168.25,61.22c0-.64,0-1.27,0-1.91q0-1.65-1.61-1.66c-.28,0-.56,0-.84,0-.27,0-.44-.11-.43-.42,0-.29.13-.45.42-.45,2.04,0,4.07,0,6.11,0,.3,0,.42.15.43.44,0,.29-.11.45-.41.44-.08,0-.16,0-.24,0-.7.06-1.62-.32-2.06.18-.47.52-.14,1.45-.15,2.19-.03,1.35-.01,2.71,0,4.06,0,.42.02.76-.59.75-.59,0-.63-.3-.62-.75.02-.96,0-1.91,0-2.87Z"/>
  <path class="cls-2" d="M192.9,63.46c.45.03.82.25.81.78,0,.47-.35.71-.78.73-.5.01-.86-.25-.85-.77,0-.46.34-.68.83-.73Z"/>
  <path class="cls-11" d="M205.1,64.15c0,.5-.32.74-.73.79-.47.06-.87-.16-.92-.68-.05-.47.27-.73.71-.77.49-.05.84.15.94.66Z"/>
  <path class="cls-12" d="M76.97,26.11c-.64,0-1.29-.06-1.91.01-1.1.14-1.42-.2-1.24-1.34.48-2.86.85-5.74,1.23-8.61.09-.7.33-1.02,1.12-.99,2.31.09,4.63.02,6.94.13,1.56.07,2.27.77,2.7,2.25,1.21,4.23-1.59,8.06-6.21,8.45-.87.07-1.75.01-2.63.01,0,.03,0,.05,0,.08Z"/>
  <path class="cls-12" d="M169.29,25.79c-.18,4.13-1.1,8.64-3.45,12.78-.68,1.19-1.55,2.21-2.65,3.04-2.56,1.92-5.56,1.46-7.42-1.14-1.52-2.12-2.07-4.56-2.1-7.1-.06-4.75.81-9.33,2.93-13.62.6-1.22,1.33-2.35,2.32-3.31,2.93-2.84,6.83-2.27,8.82,1.27,1.31,2.34,1.56,4.89,1.56,8.08Z"/>
  <path class="cls-12" d="M16.46,33.24c1.98-5.34,3.92-10.56,5.85-15.77.06,0,.13.02.19.02.41,4.11.82,8.22,1.24,12.34.09.91.16,1.82.27,2.72.06.51-.08.7-.62.7-2.26-.02-4.52-.01-6.93-.01Z"/>
  <path class="cls-12" d="M24.34,59.1c.03-.78-.28-1.67,1.04-1.62,1.44.07,2.28.55,2.29,1.52.02,1.01-.83,1.51-2.34,1.61-1.46.1-.88-.92-1-1.51Z"/>
  <path class="cls-12" d="M99.58,59.17c-.01-.89-.29-1.8,1.12-1.7,1.44.11,2.25.62,2.21,1.61-.04.96-.86,1.41-2.3,1.53-1.42.11-.96-.85-1.02-1.44Z"/>
  <path class="cls-16" d="M56.12,60.77c0-.6,0-1.19,0-1.79,0-1.51.05-1.56,1.61-1.49,2.92.13,4.35,2.08,3.37,4.58-.57,1.45-3.24,2.57-4.67,1.98-.38-.15-.3-.42-.3-.67-.01-.87,0-1.75,0-2.62Z"/>
  <path class="cls-12" d="M131.83,60.86c-.02,1.97-1.23,3.26-3.03,3.24-1.75-.02-3-1.44-2.95-3.35.05-1.93,1.32-3.29,3.06-3.26,1.76.03,2.94,1.39,2.92,3.36Z"/>
  <path class="cls-12" d="M70.94,60.79c0,1.95-1.21,3.29-2.99,3.31-1.77.01-3.01-1.34-3-3.28,0-1.96,1.22-3.31,2.98-3.32,1.76,0,3.01,1.36,3.01,3.3Z"/>
  <path class="cls-12" d="M179.71,60.77c.01,1.95-1.19,3.31-2.96,3.33-1.77.02-3.03-1.32-3.03-3.25,0-1.97,1.19-3.32,2.95-3.35,1.76-.03,3.02,1.34,3.03,3.27Z"/>
  <path class="cls-16" d="M153.11,58.59c-.02-.38-.23-1.16,1.01-1.11,1.49.06,2.37.58,2.35,1.58-.02.99-.86,1.55-2.39,1.53-1.1-.02-.95.33-.96-2Z"/>
  <path class="cls-15" d="M50.97,61.43h-2.71c.43-1.17.84-2.28,1.34-3.61.5,1.32.92,2.43,1.37,3.61Z"/>
  <path class="cls-15" d="M91.64,61.38c.41-1.11.81-2.2,1.3-3.54.49,1.25.92,2.33,1.39,3.54h-2.7Z"/>
  <path class="cls-6" d="M110.36,61.42c-2.67.15-2.68.14-1.79-2.18.16-.42.13-.95.57-1.28.42,1.11.83,2.2,1.24,3.29.01.03-.01.08-.03.17Z"/>
  <path class="cls-6" d="M197.11,61.4c.44-1.17.86-2.29,1.34-3.58.48,1.27.9,2.38,1.36,3.58h-2.7Z"/>
  <path class="cls-15" d="M10.37,61.44h-2.73c.44-1.2.86-2.34,1.34-3.63.49,1.28.92,2.42,1.38,3.63Z"/>
  <path class="cls-5" d="M84.76,59.21c.19-.7-.48-1.8,1.04-1.74,1.47.06,2.33.61,2.34,1.65.01,1.07-.92,1.73-2.37,1.8-1.59.08-.74-1.11-1.01-1.71Z"/>
</svg>